<svg width="24" height="24" viewBox="0 0 24 24" fill="none" xmlns="http://www.w3.org/2000/svg">
<path d="M2.88411 11.0165C2.88411 11.0165 11.0664 7.66875 13.9041 6.49C14.9919 6.0185 18.681 4.50963 18.681 4.50963C18.681 4.50963 20.3836 3.84963 20.2417 5.45263C20.1944 6.11275 19.816 8.42313 19.4376 10.9221C18.8701 14.4585 18.2552 18.3248 18.2552 18.3248C18.2552 18.3248 18.1607 19.4093 17.3567 19.5979C16.5526 19.7865 15.2284 18.9378 14.9919 18.7491C14.8027 18.6076 11.4447 16.4859 10.2151 15.4486C9.88399 15.1658 9.50561 14.5999 10.2624 13.9398C11.965 12.3839 13.9987 10.4506 15.2284 9.22475C15.7959 8.65888 16.3635 7.33863 13.9987 8.94175C10.6407 11.2521 7.32999 13.4211 7.32999 13.4211C7.32999 13.4211 6.57336 13.8926 5.15449 13.4683C3.73561 13.0439 2.08024 12.4781 2.08024 12.4781C2.08024 12.4781 0.945236 11.7708 2.88436 11.0165H2.88411Z" stroke="white" stroke-width="1.5"/>
</svg>
